<?xml version="1.0" encoding="UTF-8"?>
<svg version="1.1" xmlns="http://www.w3.org/2000/svg" width="256" height="256">
<path d="M0 0 C14.32024234 10.56216769 27.56046513 23.3018429 38.578125 37.26171875 C41.31043256 40.69133397 44.15390135 44.01419188 47.015625 47.3359375 C47.50313232 47.90256104 47.99063965 48.46918457 48.49291992 49.05297852 C49.20605347 49.88140259 49.20605347 49.88140259 49.93359375 50.7265625 C50.40200684 51.27248047 50.87041992 51.81839844 51.35302734 52.38085938 C52.40172629 53.59305954 53.46043724 54.79662955 54.52587891 55.99414062 C55.07550293 56.61740234 55.62512695 57.24066406 56.19140625 57.8828125 C56.69583252 58.44838867 57.20025879 59.01396484 57.7199707 59.59667969 C58.828125 61.0859375 58.828125 61.0859375 58.828125 63.0859375 C59.488125 63.0859375 60.148125 63.0859375 60.828125 63.0859375 C60.80492188 62.39886719 60.78171875 61.71179688 60.7578125 61.00390625 C60.73976563 60.10285156 60.72171875 59.20179687 60.703125 58.2734375 C60.67992188 57.38011719 60.65671875 56.48679687 60.6328125 55.56640625 C60.828125 53.0859375 60.828125 53.0859375 62.828125 50.0859375 C65.453125 49.8984375 65.453125 49.8984375 67.828125 50.0859375 C69.95313703 53.62762422 70.30310019 57.0323676 70.828125 61.0859375 C71.53195313 60.10496094 72.23578125 59.12398438 72.9609375 58.11328125 C79.76650443 48.75986339 87.02329001 40.15148058 95.09326172 31.86767578 C96.77810771 30.13730623 98.44609439 28.39189541 100.11328125 26.64453125 C111.09543703 15.26142114 123.07942952 5.92699039 136.828125 -1.9140625 C137.6325 -2.39617188 138.436875 -2.87828125 139.265625 -3.375 C146.89605779 -7.62845071 155.33687651 -9.22086385 163.828125 -10.9140625 C164.77816406 -11.11257812 165.72820312 -11.31109375 166.70703125 -11.515625 C171.14832281 -12.08259839 175.54324449 -12.05849355 180.015625 -12.0390625 C180.91732422 -12.04292969 181.81902344 -12.04679687 182.74804688 -12.05078125 C183.61365234 -12.04949219 184.47925781 -12.04820313 185.37109375 -12.046875 C186.5470813 -12.04518311 186.5470813 -12.04518311 187.74682617 -12.04345703 C189.828125 -11.9140625 189.828125 -11.9140625 192.828125 -10.9140625 C192.60485837 -7.23016305 191.54376327 -5.43099945 189.078125 -2.8515625 C180.12175352 7.16967949 179.02662235 21.44259458 176.99682617 34.18261719 C173.44086183 56.18719556 173.44086183 56.18719556 163.453125 63.5859375 C161.59270141 64.77571066 159.71551132 65.93941711 157.828125 67.0859375 C156.55471684 67.88599866 155.28266826 68.68822635 154.01171875 69.4921875 C151.27164166 71.2203825 148.52434146 72.93601644 145.76953125 74.640625 C140.75921311 77.74242429 135.79177655 80.91004181 130.828125 84.0859375 C133.36013605 86.63626327 135.90278461 89.15668482 138.51171875 91.62890625 C145.63217035 98.46655977 153.13076528 105.97286832 154.140625 116.2734375 C153.52355907 123.8016419 150.07959164 127.95427806 145.015625 133.2109375 C136.87026087 141.81417713 131.5311364 152.28686797 131.59375 164.26171875 C131.81229781 166.89521988 132.25334872 168.58324846 133.328125 170.9609375 C135.81213525 176.71338229 136.25042415 184.23478903 134.06640625 190.1484375 C132.23535435 193.04338121 129.84767659 195.48180072 126.828125 197.0859375 C123.03697301 196.67191448 120.87572298 194.74351613 118.015625 192.3359375 C116.57509766 191.12744141 116.57509766 191.12744141 115.10546875 189.89453125 C109.58017487 185.17390837 104.07976928 180.42383037 98.61816406 175.62963867 C97.41796786 174.59460859 96.20066523 173.5791114 94.96777344 172.58325195 C90.96432003 169.31961363 88.23756039 166.15109944 85.578125 161.6484375 C84.93359375 160.57722656 84.2890625 159.50601563 83.625 158.40234375 C79.92077156 151.56562648 78.15853447 145.4457408 77.01171875 137.87109375 C76.31379417 133.67552413 75.36957689 130.52208418 72.828125 127.0859375 C72.168125 126.7559375 71.508125 126.4259375 70.828125 126.0859375 C70.74771973 126.81707764 70.66731445 127.54821777 70.58447266 128.30151367 C70.21466558 131.62634831 69.83400945 134.94985442 69.453125 138.2734375 C69.32679688 139.42392578 69.20046875 140.57441406 69.0703125 141.75976562 C68.94140625 142.87158203 68.8125 143.98339844 68.6796875 145.12890625 C68.50687256 146.66067505 68.50687256 146.66067505 68.33056641 148.22338867 C67.83041808 151.07287318 67.00121782 153.4496549 65.828125 156.0859375 C63.53885876 152.65203814 62.96584982 149.56295597 62.265625 145.5859375 C62.13631592 144.87630859 62.00700684 144.16667969 61.8737793 143.43554688 C60.85745223 137.67701043 60.18683407 131.92423678 59.828125 126.0859375 C56.64205076 132.14297974 53.74070248 138.18044187 51.25976562 144.55444336 C45.1828429 160.06937331 35.69986406 167.79116712 22.60546875 177.46875 C11.32814203 184.99436569 11.32814203 184.99436569 2.828125 195.0859375 C-0.42898185 194.84467033 -1.37456828 193.88324422 -3.734375 191.5234375 C-8.00468287 186.01421315 -9.97090536 180.04891632 -9.171875 173.0859375 C-8.53267802 170.95251381 -7.86285998 168.82815482 -7.171875 166.7109375 C-4.56887142 158.58584774 -3.83001046 152.37450969 -7.625 144.55078125 C-10.29097205 140.30272982 -13.6009426 136.61653823 -16.9296875 132.8828125 C-20.42402307 128.52402458 -21.67292988 124.8228774 -21.47265625 119.18359375 C-19.60640297 106.16829493 -5.0657273 95.84435043 3.828125 87.0859375 C1.55601011 84.56668508 -0.67260832 83.16242586 -3.70703125 81.66796875 C-4.59438965 81.22227539 -5.48174805 80.77658203 -6.39599609 80.31738281 C-7.33266113 79.84913086 -8.26932617 79.38087891 -9.234375 78.8984375 C-16.97342911 74.93526645 -23.80531377 71.06429377 -30.171875 65.0859375 C-31.09226562 64.31636719 -31.09226562 64.31636719 -32.03125 63.53125 C-43.89224032 52.98231613 -48.12989584 37.94447422 -49.421875 22.7734375 C-50.62907887 10.94163405 -53.2135749 3.62931247 -61.171875 -5.3515625 C-63.171875 -7.9140625 -63.171875 -7.9140625 -62.984375 -10.7890625 C-62.71625 -11.4903125 -62.448125 -12.1915625 -62.171875 -12.9140625 C-42.51331782 -20.22887447 -16.52058631 -11.06203002 0 0 Z " fill="#2461E7" transform="translate(63.171875,36.9140625)"/>
<path d="M0 0 C1 3 1 3 0.3359375 5.03515625 C-1.30218985 7.44444881 -2.76283253 8.18348605 -5.375 9.4375 C-11.95736592 12.90801024 -14.36190998 17.27287044 -17 24 C-18.32 24 -19.64 24 -21 24 C-20.45957816 15.71353185 -17.13906539 8.64383165 -11.125 2.875 C-7.27361349 -0.25150578 -4.85379486 -0.70784508 0 0 Z " fill="#1F55CB" transform="translate(152,59)"/>
<path d="M0 0 C4.89583639 0.63464546 7.26422657 2.67951868 10.375 6.4375 C14.05362477 12.35563919 16.8078018 17.34377288 16.375 24.4375 C15.385 24.4375 14.395 24.4375 13.375 24.4375 C13.07207031 23.76203125 12.76914063 23.0865625 12.45703125 22.390625 C9.29081131 15.64901209 6.56431565 12.33882279 0.125 8.5 C-2.625 6.4375 -2.625 6.4375 -3.5625 3.75 C-3.583125 2.986875 -3.60375 2.22375 -3.625 1.4375 C-2.625 0.4375 -2.625 0.4375 0 0 Z " fill="#2057D0" transform="translate(109.625,58.5625)"/>
</svg>
