<?xml version="1.0" encoding="UTF-8"?>
<svg version="1.1" xmlns="http://www.w3.org/2000/svg" width="2000" height="600">
<path d="M0 0 C209.64528302 0 209.64528302 0 238 26 C238.82757813 26.72445312 239.65515625 27.44890625 240.5078125 28.1953125 C255.71409513 42.28553769 263.39089409 62.10221889 264.21875 82.62890625 C264.82751427 106.47217351 258.95779094 128.62687837 242.3125 146.3125 C233.24573514 154.87321287 222.22433358 160.75786619 211 166 C212.30710938 166.41958984 212.30710938 166.41958984 213.640625 166.84765625 C226.73370102 171.25452491 237.02803299 177.30648233 247 187 C247.62519531 187.56332031 248.25039063 188.12664062 248.89453125 188.70703125 C263.00619462 201.79934197 270.99301665 221.95886023 272 241 C272.05285156 241.99 272.10570312 242.98 272.16015625 244 C272.80512649 268.22844731 265.89935288 292.02795804 249.109375 310.01171875 C228.50509997 329.43315577 200.60513467 340.24246628 172.20446777 340.12025452 C171.46436462 340.12111053 170.72426147 340.12196655 169.96173096 340.12284851 C167.49724853 340.12449134 165.03283549 340.11900034 162.56835938 340.11352539 C160.7651698 340.11321879 158.96198011 340.113353 157.15879059 340.11389065 C152.34423307 340.11411575 147.52970056 340.10833361 142.71514893 340.10128021 C138.19193445 340.09557151 133.66872595 340.09531634 129.14550781 340.09460449 C115.93033525 340.08936397 102.7151673 340.07540276 89.5 340.0625 C59.965 340.041875 30.43 340.02125 0 340 C0 227.8 0 115.6 0 0 Z M83 67 C83 90.1 83 113.2 83 137 C93.456875 137.0825 103.91375 137.165 114.6875 137.25 C117.96260498 137.28641602 121.23770996 137.32283203 124.61206055 137.36035156 C127.24527331 137.37204806 129.87849337 137.3822376 132.51171875 137.390625 C133.50943047 137.40630524 133.50943047 137.40630524 134.52729797 137.42230225 C147.24601242 137.61181652 160.23466208 135.91874612 170 127 C177.34690292 118.18054973 179.70647297 108.44403407 178.75390625 97.05859375 C177.23196838 87.374759 173.70583653 80.2026446 166 74 C155.65384177 67.0280748 143.09759122 66.56463816 131.046875 66.70703125 C129.20730225 66.71156311 129.20730225 66.71156311 127.33056641 66.71618652 C122.8036238 66.73173581 118.27680233 66.77361822 113.75 66.8125 C103.6025 66.874375 93.455 66.93625 83 67 Z M83 199 C83 223.42 83 247.84 83 273 C98.654375 273.061875 98.654375 273.061875 114.625 273.125 C117.89100098 273.14320801 121.15700195 273.16141602 124.52197266 273.18017578 C127.15266761 273.18602493 129.78336439 273.19111948 132.4140625 273.1953125 C133.40785416 273.20315262 133.40785416 273.20315262 134.42172241 273.21115112 C150.15961532 273.32884019 165.39930546 272.70057005 178.0703125 262.30078125 C185.66963854 254.1095479 187.34417461 243.86872624 187.2109375 233.08984375 C186.56653238 223.65050204 182.72258519 215.65814445 175.99609375 209.0234375 C167.00977438 201.46785592 156.54920136 198.8652945 144.98486328 198.88647461 C144.30019926 198.88635407 143.61553524 198.88623354 142.91012383 198.88610935 C140.71348596 198.88685042 138.51693501 198.89444157 136.3203125 198.90234375 C134.95629924 198.90381567 133.59228542 198.90483484 132.22827148 198.90539551 C127.19383899 198.91061941 122.15941863 198.92458068 117.125 198.9375 C105.86375 198.958125 94.6025 198.97875 83 199 Z " fill="#2664EB" transform="translate(24,131)"/>
<path d="M0 0 C27.72 0 55.44 0 84 0 C84 118.47 84 236.94 84 359 C56.28 359 28.56 359 0 359 C-0.33 347.78 -0.66 336.56 -1 325 C-2.7325 327.124375 -4.465 329.24875 -6.25 331.4375 C-11.86084143 338.10240123 -17.70283458 343.18168068 -25 348 C-25.83144531 348.56203125 -26.66289063 349.1240625 -27.51953125 349.703125 C-50.16565259 364.19078906 -81.43852006 366.67134445 -107.36791992 361.40795898 C-138.12782303 354.40415368 -163.75627222 335.65263133 -180.6171875 309.01171875 C-203.88090628 270.73642357 -207.59747026 221.42899517 -197.30639648 178.48657227 C-192.5036213 159.67522913 -184.5517488 141.92566651 -172 127 C-170.98679687 125.67935547 -170.98679687 125.67935547 -169.953125 124.33203125 C-164.65056265 117.51579418 -158.89826844 112.17370133 -152 107 C-151.22140625 106.39542969 -150.4428125 105.79085937 -149.640625 105.16796875 C-137.48742613 96.13463469 -123.6946 90.38525514 -109 87 C-108.19409424 86.81381104 -107.38818848 86.62762207 -106.55786133 86.43579102 C-98.80807245 84.83103315 -91.20837333 84.6525934 -83.3125 84.6875 C-82.31896515 84.69073273 -82.31896515 84.69073273 -81.30535889 84.69403076 C-54.34498918 84.83477562 -31.19261146 92.97088263 -11 111 C-7.7 114.63 -4.4 118.26 -1 122 C-0.505 61.61 -0.505 61.61 0 0 Z M-93 169 C-93.83144531 169.65871094 -94.66289063 170.31742188 -95.51953125 170.99609375 C-107.51087305 181.08176504 -114.58771803 195.07057739 -116.71875 210.58203125 C-118.45116013 231.63562654 -116.01706199 251.63267636 -103 269 C-102.58492187 269.59167969 -102.16984375 270.18335938 -101.7421875 270.79296875 C-94.08514926 280.8113092 -81.31958775 287.93301034 -69 290 C-51.52502897 291.96351866 -36.14736624 288.91238073 -22 278 C-10.2182697 268.17841598 -2.58789547 253.52470878 -0.28125 238.3984375 C1.50363462 216.83108173 -0.21636305 196.26100689 -13.8359375 178.53515625 C-23.21793212 167.54433583 -35.77305514 159.24591495 -50.39111328 157.75634766 C-66.13828673 156.69303369 -80.39525344 158.7717491 -93 169 Z " fill="#2664EB" transform="translate(1643,112)"/>
<path d="M0 0 C14.08869928 11.77620933 24.18556093 24.15990232 32.83203125 40.3671875 C33.53972656 41.64335937 33.53972656 41.64335937 34.26171875 42.9453125 C44.73267626 62.58648745 48.03765757 85.75807787 47.95703125 107.7421875 C47.96089844 108.78890625 47.96476562 109.835625 47.96875 110.9140625 C47.96681641 112.48027344 47.96681641 112.48027344 47.96484375 114.078125 C47.96371582 114.99899902 47.96258789 115.91987305 47.96142578 116.86865234 C47.76997714 122.04499007 47.26219661 127.20520313 46.83203125 132.3671875 C-15.20796875 132.3671875 -77.24796875 132.3671875 -141.16796875 132.3671875 C-136.98690831 150.13669436 -133.13934009 164.93544476 -117.73046875 175.1796875 C-105.44930992 182.5652063 -91.51893687 184.28809887 -77.484375 181.68359375 C-71.27154594 179.91999916 -66.15223164 177.49696833 -60.97265625 173.63671875 C-59.16796875 172.3671875 -59.16796875 172.3671875 -56.16796875 171.3671875 C-54.90948476 169.26314486 -54.06075577 167.09930368 -53.14988708 164.82339478 C-51.48441337 161.55378298 -50.06679622 159.65268742 -47.16796875 157.3671875 C-40.73557168 155.48078812 -33.63502428 156.20821043 -27.015625 156.390625 C-25.03026395 156.40928989 -23.04485666 156.42351807 -21.05943298 156.4335022 C-15.8484143 156.4715789 -10.64020917 156.56970981 -5.43029785 156.68054199 C-0.10821597 156.78307323 5.21432329 156.82856046 10.53710938 156.87890625 C20.96998231 156.98596648 31.40077231 157.15650325 41.83203125 157.3671875 C41.0556551 160.08191224 40.27380279 162.79485829 39.48876953 165.50708008 C39.16257378 166.6508952 39.16257378 166.6508952 38.82978821 167.81781769 C37.05753712 173.91607233 34.76031063 179.47721484 31.70703125 185.0546875 C31.23257568 185.93697021 30.75812012 186.81925293 30.26928711 187.72827148 C13.51251735 218.04412296 -14.62744286 237.63687526 -47.40625 247.32421875 C-60.40645045 250.81963689 -73.40779379 251.75306169 -86.79296875 251.6796875 C-87.91164337 251.67545776 -87.91164337 251.67545776 -89.05291748 251.67114258 C-128.01615731 251.45045256 -161.65212802 238.79519401 -189.4375 211.10546875 C-217.9766714 180.86694213 -225.12800515 141.12699407 -224.30859375 100.98095703 C-223.11776046 70.37902226 -212.48865444 41.09312827 -193.16796875 17.3671875 C-192.52214844 16.56796875 -191.87632812 15.76875 -191.2109375 14.9453125 C-175.48013598 -3.63689703 -151.62198588 -16.73404098 -128.16796875 -22.6328125 C-127.05397705 -22.92696045 -127.05397705 -22.92696045 -125.91748047 -23.22705078 C-84.3341566 -33.80670651 -34.05059791 -26.92372858 0 0 Z M-122.16796875 51.3671875 C-123.01875 52.00269531 -123.86953125 52.63820313 -124.74609375 53.29296875 C-134.52933183 61.67183878 -137.94101717 73.1189538 -140.16796875 85.3671875 C-106.50796875 85.3671875 -72.84796875 85.3671875 -38.16796875 85.3671875 C-38.16796875 72.92048824 -41.51871567 63.79322249 -49.83984375 54.5 C-61.22363097 43.55405075 -75.77461683 39.79439762 -91.16015625 40.05859375 C-102.76149215 40.74555246 -112.88525711 44.27687509 -122.16796875 51.3671875 Z " fill="#2664EB" transform="translate(1082.16796875,223.6328125)"/>
<path d="M0 0 C0.65824768 0.00215515 1.31649536 0.0043103 1.99468994 0.00653076 C30.92977664 0.15826214 54.09350012 8.91195338 75.3125 28.875 C97.86545187 52.06524094 104.87297111 84.26463841 104.65307617 115.62573242 C104.65222684 117.3625029 104.652711 119.09927445 104.65440369 120.83604431 C104.65525312 125.48362934 104.63780095 130.13097497 104.61668181 134.77850509 C104.59773656 139.66045478 104.59615068 144.54241191 104.59260559 149.4243927 C104.58333695 158.63904671 104.55879446 167.85359203 104.52855712 177.0681985 C104.48852928 189.54113237 104.4725163 202.01409663 104.45505047 214.48707867 C104.42696871 234.09563362 104.36716501 253.70395937 104.3125 273.3125 C76.9225 273.3125 49.5325 273.3125 21.3125 273.3125 C21.27511719 262.05769531 21.23773437 250.80289063 21.19921875 239.20703125 C21.16893352 232.06574302 21.13790273 224.92447084 21.10351562 217.78320312 C21.04910469 206.454849 20.99768844 195.12653942 20.96606445 183.7980957 C20.94301501 175.5462792 20.90953999 167.29458038 20.86379844 159.04285735 C20.8399595 154.67786962 20.82116984 150.31299778 20.81488609 145.94794655 C20.80879271 141.82993826 20.78864152 137.7122261 20.75822449 133.59432793 C20.74951183 132.09206838 20.74570743 130.58977002 20.74749184 129.08748627 C20.76129324 112.08957196 17.74808888 96.05882756 5.63671875 83.34765625 C-7.0141973 72.27013144 -21.14133243 70.23047668 -37.33007812 71.10107422 C-48.6282494 72.11435263 -60.15569406 77.63583952 -67.95703125 85.9375 C-80.48078604 103.12585872 -80.85735721 121.70237338 -80.80102539 142.30419922 C-80.80074243 143.74466958 -80.80090338 145.18514008 -80.8014679 146.62561035 C-80.80175162 150.4883075 -80.79592446 154.3509728 -80.78889394 158.21366262 C-80.78258881 162.26818265 -80.78205099 166.32270362 -80.78086853 170.37722778 C-80.77777613 178.03370062 -80.76959129 185.69015896 -80.75951904 193.34662545 C-80.74618813 203.70789505 -80.74084108 214.06916869 -80.73501682 224.43044472 C-80.72564971 240.72447397 -80.70571692 257.01847266 -80.6875 273.3125 C-108.4075 273.3125 -136.1275 273.3125 -164.6875 273.3125 C-164.6875 183.8825 -164.6875 94.4525 -164.6875 2.3125 C-137.2975 2.3125 -109.9075 2.3125 -81.6875 2.3125 C-80.6875 3.3125 -80.6875 3.3125 -80.58984375 5.93286133 C-80.60144531 7.0752124 -80.61304688 8.21756348 -80.625 9.39453125 C-80.63273437 10.63654297 -80.64046875 11.87855469 -80.6484375 13.15820312 C-80.67436378 15.79101676 -80.70040441 18.42382928 -80.7265625 21.05664062 C-80.73429687 22.30251953 -80.74203125 23.54839844 -80.75 24.83203125 C-80.76160156 25.97776611 -80.77320313 27.12350098 -80.78515625 28.30395508 C-80.7025694 30.84824937 -80.4387119 32.89730938 -79.6875 35.3125 C-79.16542969 34.69503906 -78.64335938 34.07757813 -78.10546875 33.44140625 C-57.65794324 9.9142184 -30.78331085 -0.13740797 0 0 Z " fill="#2664EB" transform="translate(1316.6875,197.6875)"/>
<path d="M0 0 C73.26 0 146.52 0 222 0 C222 22.11 222 44.22 222 67 C176.46 67 130.92 67 84 67 C84 90.43 84 113.86 84 138 C117.99 138 151.98 138 187 138 C187 159.45 187 180.9 187 203 C153.01 203 119.02 203 84 203 C84 248.21 84 293.42 84 340 C56.28 340 28.56 340 0 340 C0 227.8 0 115.6 0 0 Z " fill="#2664EB" transform="translate(322,131)"/>
<path d="M0 0 C0.81576508 0.00182281 1.63153015 0.00364563 2.47201538 0.00552368 C14.4523536 0.05060727 26.13987659 0.35209426 37.8125 3.3125 C38.48893555 3.47878906 39.16537109 3.64507812 39.86230469 3.81640625 C63.56840086 9.86330844 86.16361443 24.01615818 99.3125 45 C100.50029677 47.09231147 101.6692275 49.1955313 102.8125 51.3125 C103.49699219 52.46878906 103.49699219 52.46878906 104.1953125 53.6484375 C107.30637917 59.22487776 109.182941 65.17477664 111.0625 71.25 C111.32111816 72.07250244 111.57973633 72.89500488 111.84619141 73.74243164 C113.74572074 80.15888713 114.18361369 85.39475054 114.8125 92.3125 C89.0725 92.3125 63.3325 92.3125 36.8125 92.3125 C35.8225 89.0125 34.8325 85.7125 33.8125 82.3125 C29.79788122 73.79664198 23.18686285 68.90092799 14.5625 65.5 C2.40457342 61.64998992 -10.50501043 62.0407359 -22.1875 67.3125 C-26.29155043 70.25810215 -28.48972152 72.48723483 -30.1875 77.3125 C-31.13300296 83.50502485 -30.5650653 88.45132532 -26.828125 93.57421875 C-16.97342521 104.01550781 2.32646635 106.49210484 15.69772339 109.93844604 C28.49881986 113.24005059 41.13732408 116.83867606 53.6875 121 C54.70663986 121.33310684 54.70663986 121.33310684 55.74636841 121.67294312 C77.80130526 128.91352417 97.37376881 140.41589107 108.8125 161.3125 C117.41450982 178.90338252 119.22516505 201.128667 113.203125 219.89453125 C104.58818191 241.0688998 90.94805044 254.74424578 70.8125 265.3125 C69.95527344 265.77398437 69.09804687 266.23546875 68.21484375 266.7109375 C62.23177978 269.68824667 55.95408989 271.61403208 49.5625 273.5 C48.31327759 273.87535889 48.31327759 273.87535889 47.03881836 274.25830078 C33.56296038 278.06806738 20.02512421 278.69358373 6.125 278.625 C5.33569092 278.62284485 4.54638184 278.6206897 3.7331543 278.61846924 C-22.04895089 278.50573281 -45.47981957 273.93919226 -68.1875 261.3125 C-69.13109375 260.796875 -70.0746875 260.28125 -71.046875 259.75 C-86.95836199 250.65772172 -99.06209869 238.01410145 -108.1875 222.3125 C-108.92613281 221.10207031 -108.92613281 221.10207031 -109.6796875 219.8671875 C-112.72899294 214.43146911 -114.37439682 208.66887136 -116 202.6875 C-116.21946289 201.88739502 -116.43892578 201.08729004 -116.66503906 200.26293945 C-116.86452148 199.48265381 -117.06400391 198.70236816 -117.26953125 197.8984375 C-117.44718018 197.2079834 -117.6248291 196.5175293 -117.80786133 195.80615234 C-118.3346646 192.34585098 -118.1875 188.81267246 -118.1875 185.3125 C-91.1275 185.3125 -64.0675 185.3125 -36.1875 185.3125 C-34.7025 189.2725 -34.7025 189.2725 -33.1875 193.3125 C-29.43195884 202.62178634 -23.7006551 208.14224879 -14.5859375 212.31640625 C-2.68721013 217.25806012 11.06902686 217.64700101 23.30078125 213.4609375 C29.15980741 210.7465864 33.31587175 207.14782062 35.75 201.0625 C37.53754144 194.96860871 36.30008311 190.0397357 33.3125 184.5625 C19.07526338 171.74898705 -6.37650053 168.53714321 -24.46069336 164.15576172 C-54.21105475 156.91186909 -83.73046114 147.93555828 -101.609375 121.1171875 C-111.48713668 103.5621556 -112.20583673 81.60702223 -107.21484375 62.3828125 C-101.03336612 41.8896426 -86.61376724 25.33062691 -68.09375 14.78125 C-46.44119253 3.83855967 -24.13612818 -0.11188467 0 0 Z " fill="#2664EB" transform="translate(1869.1875,196.6875)"/>
<path d="M0 0 C0 29.04 0 58.08 0 88 C-11.22 88.33 -22.44 88.66 -34 89 C-57.50242347 93.37461695 -57.50242347 93.37461695 -74.62109375 108.67578125 C-82.00784909 121.1265445 -83.29450024 133.80480727 -83.31884766 148.00854492 C-83.32816832 149.37961402 -83.33834009 150.75067755 -83.34928894 152.12173462 C-83.37636234 155.80897046 -83.39167028 159.4961686 -83.40471697 163.18347716 C-83.42044779 167.04987728 -83.44720575 170.91620149 -83.4727478 174.782547 C-83.5193607 182.08846594 -83.5561889 189.39439943 -83.58942068 196.70039016 C-83.63494965 206.58396757 -83.69575809 216.46745055 -83.75566864 226.35094929 C-83.84952619 241.90058529 -83.92311119 257.45024938 -84 273 C-111.72 273 -139.44 273 -168 273 C-168 183.57 -168 94.14 -168 2 C-140.28 2 -112.56 2 -84 2 C-83.67 15.86 -83.34 29.72 -83 44 C-79.535 39.545 -79.535 39.545 -76 35 C-57.00215677 11.58239587 -29.7350582 0 0 0 Z " fill="#2664EB" transform="translate(734,198)"/>
<path d="M0 0 C27.72 0 55.44 0 84 0 C84 89.43 84 178.86 84 271 C56.28 271 28.56 271 0 271 C0 181.57 0 92.14 0 0 Z " fill="#2664EB" transform="translate(752,200)"/>
<path d="M0 0 C0.8559375 -0.01224609 1.711875 -0.02449219 2.59375 -0.03710938 C16.20995679 -0.0680553 28.27082463 4.40856697 38.21484375 13.9375 C47.11983179 23.78255396 51.00870652 35.1750482 50.52734375 48.44140625 C49.20920335 61.4928527 43.92660683 71.97560473 33.76953125 80.40234375 C19.43429702 90.55924614 3.33065021 92.11340601 -13.703125 89.60546875 C-26.02386426 86.58053389 -36.21794985 79.64281281 -43.16015625 68.97265625 C-49.82605617 57.29504778 -50.71971109 44.46786957 -47.9375 31.359375 C-44.31021693 20.72942045 -36.43094578 11.85439509 -26.75 6.1875 C-17.57814648 1.78117873 -10.08418814 0.00745872 0 0 Z " fill="#2664EB" transform="translate(793.75,82.8125)"/>
</svg>
